<?xml version="1.0" encoding="UTF-8"?>
<svg width="16px" height="16px" viewBox="0 0 16 16" version="1.1" xmlns="http://www.w3.org/2000/svg" xmlns:xlink="http://www.w3.org/1999/xlink">
    <title>guanliyuan</title>
    <g id="页面-1" stroke="none" stroke-width="1" fill="none" fill-rule="evenodd">
        <g id="我的" transform="translate(-264.000000, -581.000000)">
            <g id="编组-12" transform="translate(220.000000, 537.000000)">
                <g id="分组-3" transform="translate(44.000000, 44.000000)">
                    <circle id="椭圆形" fill="#337AFF" cx="8" cy="8" r="8"></circle>
                    <g id="管理员" transform="translate(2.666667, 2.666667)" fill-rule="nonzero">
                        <rect id="矩形" fill="#000000" opacity="0" x="0" y="0" width="10.6666667" height="10.6666667"></rect>
                        <path d="M5.33333333,5.48875582 C6.53505792,5.48875582 7.50924817,4.0482981 7.50924817,2.84657352 C7.50924817,1.64484894 6.53505792,0.670658687 5.33333333,0.670658687 C4.13160875,0.670658687 3.1574185,1.64484894 3.1574185,2.84657352 C3.1574185,4.0482981 4.13160875,5.48875582 5.33333333,5.48875582 Z M1.44777112,8.28851621 C1.44777112,7.70057368 1.87423571,7.01117356 2.40033858,6.7486819 L3.36802509,6.26586826 L4.10101591,8.79428397 C4.10101591,8.79428397 4.12151689,9.01306825 4.48794684,9.01306825 C4.85437681,9.01306825 4.85437681,8.79428397 4.85437681,8.79428397 L4.85437681,6.73213573 C4.85437681,6.73213573 4.87100493,6.26586826 5.34878669,6.26586826 C5.82656845,6.26586826 5.82656845,6.73213573 5.82656845,6.73213573 L5.82656845,8.79428397 C5.82656845,8.79428397 5.95148925,9.05344281 6.24748372,9.05344281 C6.54347821,9.05344281 6.57919414,8.79428397 6.57919414,8.79428397 L7.296835,6.26586826 L8.26613576,6.74903275 C8.79233047,7.01132347 9.21889554,7.70048549 9.21889554,8.28851621 L9.21889554,8.93144387 C9.21889554,9.5193864 8.74229107,9.99600798 8.15439428,9.99600798 L2.51227239,9.99600798 C1.92436457,9.99600798 1.44777112,9.51947458 1.44777112,8.93144387 L1.44777112,8.28851621 Z" id="形状" fill="#FFFFFF"></path>
                    </g>
                </g>
            </g>
        </g>
    </g>
</svg>