<?xml version="1.0" encoding="UTF-8"?>
<svg width="16px" height="16px" viewBox="0 0 16 16" version="1.1" xmlns="http://www.w3.org/2000/svg" xmlns:xlink="http://www.w3.org/1999/xlink">
    <title>xc</title>
    <g id="页面-1" stroke="none" stroke-width="1" fill="none" fill-rule="evenodd">
        <g id="1.0.11-相册（时间轴模式）" transform="translate(-40.000000, -327.000000)" fill="#337AFF" fill-rule="nonzero">
            <g id="回收站2" transform="translate(40.000000, 327.000000)">
                <path d="M15.4285714,0.5 L0.571428571,0.5 C0.255357143,0.5 0,0.755357143 0,1.07142857 L0,14.5 C0,14.8160714 0.255357143,15.0714286 0.571428571,15.0714286 L15.4285714,15.0714286 C15.7446429,15.0714286 16,14.8160714 16,14.5 L16,1.07142857 C16,0.755357143 15.7446429,0.5 15.4285714,0.5 Z M4.89285714,4.07142857 C5.52321429,4.07142857 6.03571429,4.58392857 6.03571429,5.21428571 C6.03571429,5.84464286 5.52321429,6.35714286 4.89285714,6.35714286 C4.2625,6.35714286 3.75,5.84464286 3.75,5.21428571 C3.75,4.58392857 4.2625,4.07142857 4.89285714,4.07142857 Z M14.0696429,11.8767857 C14.0446429,11.8982143 14.0107143,11.9107143 13.9767857,11.9107143 L2.02142857,11.9107143 C1.94285714,11.9107143 1.87857143,11.8464286 1.87857143,11.7678571 C1.87857143,11.7339286 1.89107143,11.7017857 1.9125,11.675 L4.95357143,8.06785714 C5.00357143,8.00714286 5.09464286,8 5.15535714,8.05 C5.16071429,8.05535714 5.16785714,8.06071429 5.17321429,8.06785714 L6.94821429,10.175 L9.77142857,6.82678571 C9.82142857,6.76607143 9.9125,6.75892857 9.97321429,6.80892857 C9.97857143,6.81428571 9.98571429,6.81964286 9.99107143,6.82678571 L14.0910714,11.6767857 C14.1375,11.7357143 14.1303571,11.8267857 14.0696429,11.8767857 Z" id="形状"></path>
            </g>
        </g>
    </g>
</svg>