<?xml version="1.0" encoding="UTF-8"?>
<svg width="224px" height="224px" viewBox="0 0 224 224" version="1.1" xmlns="http://www.w3.org/2000/svg" xmlns:xlink="http://www.w3.org/1999/xlink">
    <title>chuanshu</title>
    <g id="Page-1" stroke="none" stroke-width="1" fill="none" fill-rule="evenodd">
        <g id="DDXC-传输任务-空" transform="translate(-848.000000, -413.000000)">
            <g id="分组-13" transform="translate(848.000000, 413.000000)">
                <circle id="椭圆形" fill-opacity="0.0508358829" fill="#337AFF" cx="112" cy="112" r="112"></circle>
                <path d="M131.099463,66.6249999 C132.27968,66.6249999 133.402564,67.1339527 134.179933,68.0219893 L153.279396,89.8499463 C153.932226,90.5962436 154.291667,91.5541615 154.291667,92.5456991 L154.291667,147.115592 C154.291667,152.389763 150.016107,156.665323 144.741936,156.665323 L79.2580646,156.665323 C76.7253184,156.665323 74.2963069,155.659194 72.5053848,153.868272 C70.7144628,152.07735 69.7083333,149.648338 69.7083333,147.115592 L69.7083333,76.1747313 C69.7083333,70.9005604 73.9838936,66.6249999 79.2580646,66.6249999 L131.099463,66.6249999 Z M145.956116,93.9099464 L129.735215,75.3752823 L129.735215,93.9099464 L145.956116,93.9099464 L145.956116,93.9099464 Z" id="形状" fill="#B6CEFD" fill-rule="nonzero"></path>
                <g id="传输" transform="translate(112.000000, 112.000000) rotate(-90.000000) translate(-112.000000, -112.000000) translate(87.000000, 87.000000)" fill-rule="nonzero">
                    <rect id="矩形" fill="#000000" opacity="0" x="0" y="0" width="50" height="50"></rect>
                    <path d="M41.8066406,21.6162109 L8.15917969,21.6162109 C7.08007812,21.6162109 6.20605469,20.7421875 6.20605469,19.6630859 C6.20605469,18.5839844 7.08007812,17.7099609 8.15917969,17.7099609 L41.8066406,17.7099609 C42.8857422,17.7099609 43.7597656,18.5839844 43.7597656,19.6630859 C43.7597656,20.7421875 42.8857422,21.6162109 41.8066406,21.6162109 Z M41.8408203,21.6113281 C41.3232422,21.6113281 40.8105469,21.40625 40.4248047,21.0058594 L32.9296875,13.1298828 C32.1875,12.3486328 32.2167969,11.1132812 32.9980469,10.3662109 C33.7792969,9.62402344 35.0146484,9.65332031 35.7617187,10.4345703 L43.2568359,18.3105469 C43.9990234,19.0917969 43.9697266,20.3271484 43.1884766,21.0742188 C42.8076172,21.4355469 42.3242187,21.6113281 41.8408203,21.6113281 Z M41.8408203,32.2900391 L8.19335937,32.2900391 C7.11425781,32.2900391 6.24023437,31.4160156 6.24023437,30.3369141 C6.24023437,29.2578125 7.11425781,28.3837891 8.19335937,28.3837891 L41.8408203,28.3837891 C42.9199219,28.3837891 43.7939453,29.2578125 43.7939453,30.3369141 C43.7939453,31.4160156 42.9199219,32.2900391 41.8408203,32.2900391 Z M15.6542969,40.1708984 C15.1367187,40.1708984 14.6240234,39.9658203 14.2382812,39.5654297 L6.74316406,31.6894531 C6.00097656,30.9082031 6.03027344,29.6728516 6.81152344,28.9257813 C7.59277344,28.1835938 8.828125,28.2128906 9.57519531,28.9941406 L17.0703125,36.8701172 C17.8125,37.6513672 17.7832031,38.8867188 17.0019531,39.6337891 C16.6259766,39.9951172 16.1376953,40.1708984 15.6542969,40.1708984 L15.6542969,40.1708984 Z" id="形状" fill="#F5F8FF"></path>
                </g>
                <g id="分组-12" transform="translate(37.000000, 43.000000)" fill="#337AFF">
                    <circle id="椭圆形" fill-opacity="0.152125219" cx="33" cy="5" r="5"></circle>
                    <circle id="椭圆形" fill-opacity="0.077114292" cx="12" cy="32" r="12"></circle>
                </g>
                <g id="分组-8" transform="translate(126.000000, 125.000000)">
                    <path d="M23,46 C10.29825,46 0,35.70175 0,23 C0,10.29825 10.29825,0 23,0 C35.70175,0 46,10.29825 46,23 C46,35.70175 35.70175,46 23,46 Z" id="形状" fill="#88B1FE" fill-rule="nonzero"></path>
                    <path d="M23.2981481,34.5 C24.0053981,34.5 24.5861481,34.27575 25.1036481,33.8215 C25.5521481,33.373 25.8108981,32.75775 25.8108981,32.0505 C25.8108981,31.34325 25.5521481,30.7625 25.1036481,30.314 C24.6206481,29.8655 24.0111481,29.6355 23.2981481,29.6355 C22.5851481,29.6355 22.0101481,29.85975 21.5616481,30.314 C21.0441481,30.7625 20.8198981,31.34325 20.8198981,32.0505 C20.8198981,32.75775 21.0441481,33.3385 21.5616481,33.787 C22.0101481,34.24125 22.5908981,34.5 23.2981481,34.5 L23.2981481,34.5 Z" id="路径" fill="#EBEFFA"></path>
                    <path d="M24.7471481,26.5305 L25.4083981,13.018 C25.4486481,12.19575 24.7931481,11.5115 23.9708981,11.5115 L22.6426481,11.5115 C21.8203981,11.5115 21.1648981,12.2015 21.2051481,13.018 L21.8663981,26.5305 C21.9066481,27.29525 22.5333981,27.899 23.3038981,27.899 C24.0801481,27.899 24.7126481,27.29525 24.7471481,26.5305 Z" id="路径" fill="#EBEFFA"></path>
                </g>
            </g>
        </g>
    </g>
</svg>