<?xml version="1.0" encoding="UTF-8"?>
<svg width="26px" height="26px" viewBox="0 0 26 26" version="1.1" xmlns="http://www.w3.org/2000/svg" xmlns:xlink="http://www.w3.org/1999/xlink">
    <title>del</title>
    <g id="页面-1" stroke="none" stroke-width="1" fill="none" fill-rule="evenodd">
        <g id="1.0.11-我的相簿-新建/重命名" transform="translate(-1120.000000, -514.000000)" fill-rule="nonzero">
            <g id="分组-2" transform="translate(690.000000, 380.000000)">
                <g id="分组-3" transform="translate(430.000000, 134.000000)">
                    <g id="叉叉" transform="translate(5.000000, 5.000000)">
                        <rect id="矩形" fill="#000000" opacity="0" x="0" y="0" width="16" height="16"></rect>
                        <path d="M8,0.5 C3.92857143,0.5 0.5,3.92857143 0.5,8 C0.5,12.0714286 3.92857143,15.5 8,15.5 C12.0714286,15.5 15.5,12.0714286 15.5,8 C15.5,3.92857143 12.0714286,0.5 8,0.5 Z M11.2142857,10.1428571 C11.5357143,10.4642857 11.5357143,10.8928571 11.2142857,11.1071429 C10.8928571,11.4285714 10.4642857,11.4285714 10.25,11.1071429 L8.10714286,8.96428571 L5.85714286,11.2142857 C5.53571429,11.5357143 5.10714286,11.5357143 4.78571429,11.2142857 C4.46428572,10.8928571 4.46428572,10.3571428 4.78571429,10.1428571 L7.03571429,7.89285714 L4.89285714,5.75 C4.57142857,5.53571429 4.57142857,5.10714286 4.89285714,4.78571429 C5.21428571,4.46428572 5.64285714,4.46428572 5.85714286,4.78571429 L8,6.92857143 L10.25,4.67857143 C10.5714286,4.35714286 11,4.35714286 11.3214286,4.67857143 C11.6428571,5 11.6428571,5.42857143 11.3214286,5.75 L9.07142857,8 L11.2142857,10.1428571 Z" id="形状" fill="#BCBFCD"></path>
                    </g>
                </g>
            </g>
        </g>
    </g>
</svg>