<?xml version="1.0" encoding="UTF-8"?>
<svg width="14px" height="14px" viewBox="0 0 14 14" version="1.1" xmlns="http://www.w3.org/2000/svg" xmlns:xlink="http://www.w3.org/1999/xlink">
    <title>del_1</title>
    <g id="页面-1" stroke="none" stroke-width="1" fill="none" fill-rule="evenodd">
        <g id="1.0.6-消息推送-消息中心（空）" transform="translate(-1737.000000, -84.000000)" fill-rule="nonzero">
            <g id="编组-18" transform="translate(1492.000000, 64.000000)">
                <g id="清空" transform="translate(245.000000, 20.000000)">
                    <rect id="矩形" fill="#000000" opacity="0" x="0" y="0" width="14" height="14"></rect>
                    <polygon id="路径" fill-opacity="0.01" fill="#FFFFFF" points="0 0 14 0 14 14 0 14"></polygon>
                    <path d="M11.765,8.51599999 L9.185,12.983 C9.05562227,13.2070413 8.76925805,13.2840017 8.545,13.155 L7.32599999,12.451 L8.968,9.60799999 C9.08076728,9.41162137 9.03746731,9.16275166 8.86500001,9.016 L8.79599999,8.968 C8.59985233,8.85499885 8.35102066,8.89787187 8.204,9.07 L8.156,9.14 L6.51399999,11.982 L4.88999999,11.044 L6.53,8.202 C6.64300115,8.00585233 6.60012813,7.75702066 6.428,7.61 L6.358,7.56 C6.16162138,7.44723272 5.91275166,7.49053268 5.766,7.663 L5.718,7.733 L4.076,10.575 L1.234,8.93500001 C1.12613072,8.87286153 1.04739103,8.77038704 1.01512867,8.65015347 C0.982866302,8.52991989 0.999728418,8.4017925 1.062,8.294 L3.642,3.82599999 L11.764,8.51599999 L11.765,8.51599999 Z M10.923,1.532 C11.148,1.66199999 11.224,1.948 11.095,2.172 L9.92299999,4.20300001 L12.765,5.844 C12.99,5.97399999 13.067,6.26099999 12.937,6.48500001 L12.468,7.29700001 C12.3386223,7.52104133 12.052258,7.59800171 11.828,7.469 L4.51800001,3.249 C4.41013072,3.18686152 4.33139103,3.08438704 4.29912867,2.96415346 C4.2668663,2.84391989 4.28372842,2.7157925 4.346,2.60799999 L4.815,1.79500001 C4.94471985,1.57132159 5.23100351,1.49483017 5.455,1.624 L8.29800001,3.26500001 L9.47,1.23500001 C9.53213848,1.12713072 9.63461296,1.04839103 9.75484654,1.01612867 C9.87508011,0.983866304 10.0032075,1.00072842 10.111,1.063 L10.923,1.532 Z" id="形状" fill="#DFE0E5"></path>
                </g>
            </g>
        </g>
    </g>
</svg>