<?xml version="1.0" encoding="UTF-8"?>
<svg width="26px" height="26px" viewBox="0 0 26 26" version="1.1" xmlns="http://www.w3.org/2000/svg" xmlns:xlink="http://www.w3.org/1999/xlink">
    <title>del</title>
    <g id="页面-1" stroke="none" stroke-width="1" fill="none" fill-rule="evenodd">
        <g id="1.0.11-相册-预览图片（下一张）" transform="translate(-1043.000000, -934.000000)" fill-rule="nonzero">
            <g id="shanchu" transform="translate(1043.000000, 934.000000)">
                <rect id="矩形" fill="#000000" opacity="0" x="0" y="0" width="26" height="26"></rect>
                <path d="M19.3787666,21.5160156 C19.3787666,22.2802734 18.7566962,22.9023437 17.9924384,22.9023437 L8.00122749,22.9023437 C7.23696968,22.9023437 6.61489937,22.2802734 6.61489937,21.5160156 L6.61489937,8.41953125 L19.3787666,8.41953125 L19.3787666,21.5160156 Z M9.39009468,5.93125 C9.39009468,5.77128906 9.51450874,5.646875 9.67446968,5.646875 L16.3420478,5.646875 C16.5020087,5.646875 16.6264228,5.77128906 16.6264228,5.93125 L16.6264228,6.76660156 L9.39009468,6.76660156 L9.39009468,5.93125 Z M23.54029,6.76660156 L18.2768134,6.76660156 L18.2768134,5.93125 C18.2768134,4.86484375 17.405915,3.99394531 16.3395087,3.99394531 L9.67446968,3.99394531 C8.60552437,3.99648437 7.73970405,4.86230469 7.73716499,5.93125 L7.73716499,6.76660156 L2.45591499,6.76660156 C1.99380562,6.76660156 1.62056343,7.13984375 1.62056343,7.60195312 C1.62056343,8.0640625 1.99380562,8.43730469 2.45591499,8.43730469 L4.94419624,8.43730469 L4.94419624,21.5134766 C4.94419624,23.2019531 6.31275093,24.5705078 8.00122749,24.5705078 L17.9924384,24.5705078 C19.680915,24.5705078 21.0494697,23.2019531 21.0494697,21.5134766 L21.0494697,8.41953125 L23.5377509,8.41953125 C23.9998603,8.41953125 24.3731025,8.04628906 24.3731025,7.58417969 C24.3731025,7.12207031 24.0023994,6.76660156 23.54029,6.76660156 Z M13.8334541,19.5609375 L13.8334541,11.7762403 C13.8334541,11.314131 13.4602119,10.9408888 12.9981025,10.9408888 C12.5359931,10.9408888 12.1627509,11.314131 12.1627509,11.7762403 L12.1627509,19.5609375 C12.1627509,20.0230469 12.5359931,20.3962891 12.9981025,20.3962891 C13.4602119,20.3962891 13.8334541,20.0230469 13.8334541,19.5609375 Z M9.93853218,19.5609375 L9.93853218,11.7762403 C9.93853218,11.314131 9.56528999,10.9408888 9.10318062,10.9408888 C8.64107124,10.9408888 8.26782905,11.314131 8.26782905,11.7762403 L8.26782905,19.5609375 C8.28560249,20.0230469 8.65884468,20.3962891 9.10318062,20.3962891 C9.56528999,20.3962891 9.93853218,20.0230469 9.93853218,19.5609375 Z M17.7258369,19.5609375 L17.7258369,11.7762403 C17.7258369,11.314131 17.3525947,10.9408888 16.8904853,10.9408888 C16.4283759,10.9408888 16.0551337,11.314131 16.0551337,11.7762403 L16.0551337,19.5609375 C16.0551337,20.0230469 16.4283759,20.3962891 16.8904853,20.3962891 C17.3525947,20.3962891 17.7258369,20.0230469 17.7258369,19.5609375 Z" id="形状" fill="#FFFFFF"></path>
            </g>
        </g>
    </g>
</svg>