<?xml version="1.0" encoding="UTF-8"?>
<svg width="26px" height="26px" viewBox="0 0 26 26" version="1.1" xmlns="http://www.w3.org/2000/svg" xmlns:xlink="http://www.w3.org/1999/xlink">
    <title>kejian</title>
    <g id="Page-1" stroke="none" stroke-width="1" fill="none" fill-rule="evenodd">
        <g id="1.0.8-安全设置-绑定密保邮箱" transform="translate(-1139.000000, -501.000000)" fill-rule="nonzero">
            <g id="可见" transform="translate(1139.000000, 501.000000)">
                <rect id="矩形" fill="#000000" opacity="0" x="0" y="0" width="26" height="26"></rect>
                <path d="M13,8 C9.66666667,8 6.82,10.0733333 5.66666667,13 C6.82,15.9266667 9.66666667,18 13,18 C16.3333333,18 19.18,15.9266667 20.3333333,13 C19.18,10.0733333 16.3333333,8 13,8 Z M13,16.3333333 C11.16,16.3333333 9.66666667,14.84 9.66666667,13 C9.66666667,11.16 11.16,9.66666667 13,9.66666667 C14.84,9.66666667 16.3333333,11.16 16.3333333,13 C16.3333333,14.84 14.84,16.3333333 13,16.3333333 Z M13,11 C11.8933333,11 11,11.8933333 11,13 C11,14.1066667 11.8933333,15 13,15 C14.1066667,15 15,14.1066667 15,13 C15,11.8933333 14.1066667,11 13,11 L13,11 Z" id="形状" fill="#85899C"></path>
            </g>
        </g>
    </g>
</svg>