<?xml version="1.0" encoding="UTF-8"?>
<svg width="20px" height="20px" viewBox="0 0 20 20" version="1.1" xmlns="http://www.w3.org/2000/svg" xmlns:xlink="http://www.w3.org/1999/xlink">
    <title>datu_0</title>
    <g id="页面-1" stroke="none" stroke-width="1" fill="none" fill-rule="evenodd">
        <g id="1.0.11-相册（时间轴模式）" transform="translate(-1880.000000, -81.000000)" fill-rule="nonzero">
            <g id="双列列表" transform="translate(1880.000000, 81.000000)">
                <rect id="矩形" fill="#000000" opacity="0" x="0" y="0" width="20" height="20"></rect>
                <path d="M8.45898438,9.375 L3.41601563,9.375 C2.91015625,9.375 2.5,8.96484375 2.5,8.45898438 L2.5,3.41601562 C2.5,2.91015625 2.91015625,2.5 3.41601563,2.5 L8.45898438,2.5 C8.96484375,2.5 9.375,2.91015625 9.375,3.41601562 L9.375,8.45898438 C9.375,8.96484375 8.96484375,9.375 8.45898438,9.375 Z M8.45898438,17.5 L3.41601563,17.5 C2.91015625,17.5 2.5,17.0898438 2.5,16.5839844 L2.5,11.5410156 C2.5,11.0351562 2.91015625,10.625 3.41601563,10.625 L8.45898438,10.625 C8.96484375,10.625 9.375,11.0351562 9.375,11.5410156 L9.375,16.5839844 C9.375,17.0898438 8.96484375,17.5 8.45898438,17.5 Z M16.5839844,9.375 L11.5410156,9.375 C11.0351563,9.375 10.625,8.96484375 10.625,8.45898438 L10.625,3.41601562 C10.625,2.91015625 11.0351563,2.5 11.5410156,2.5 L16.5839844,2.5 C17.0898438,2.5 17.5,2.91015625 17.5,3.41601562 L17.5,8.45898438 C17.5,8.96484375 17.0898438,9.375 16.5839844,9.375 Z M16.5839844,17.5 L11.5410156,17.5 C11.0351563,17.5 10.625,17.0898438 10.625,16.5839844 L10.625,11.5410156 C10.625,11.0351562 11.0351563,10.625 11.5410156,10.625 L16.5839844,10.625 C17.0898438,10.625 17.5,11.0351562 17.5,11.5410156 L17.5,16.5839844 C17.5,17.0898438 17.0898438,17.5 16.5839844,17.5 Z" id="形状" fill="#BCBFCD"></path>
            </g>
        </g>
    </g>
</svg>