<?xml version="1.0" encoding="UTF-8"?>
<svg width="16px" height="16px" viewBox="0 0 16 16" version="1.1" xmlns="http://www.w3.org/2000/svg" xmlns:xlink="http://www.w3.org/1999/xlink">
    <title>wj</title>
    <g id="页面-1" stroke="none" stroke-width="1" fill="none" fill-rule="evenodd">
        <g id="文件" transform="translate(-40.000000, -159.000000)" fill="#337AFF" fill-rule="nonzero">
            <g id="分组-9" transform="translate(40.000000, 159.000000)">
                <path d="M14.625,0 L1.71338511,0 C0.463385107,0 0.463385107,0 0.463385107,1.25 L0.463385107,14.75 C0.463385107,16 0.463385107,16 1.71338511,16 L9.875,16 C11.125,16 11.125,16 11.125,14.75 L11.125,12.75 C11.125,11.5 11.125,11.5 12.375,11.5 L14.5,11.5 C15.75,11.5 15.75,11.5 15.75,10.25 L15.75,1.125 C15.75,0 15.75,0 14.625,0 Z M10.5,7.875 C10.5,8.25 10.25,8.5 9.875,8.5 L3.75,8.5 C3.375,8.5 3.125,8.25 3.125,7.875 L3.125,7.75 C3.125,7.375 3.375,7.125 3.75,7.125 L9.875,7.125 C10.25,7.125 10.5,7.375 10.5,7.875 Z M12.9483269,4.875 C12.9483269,5.25 12.6983269,5.5 12.3233269,5.5 L3.75,5.5 C3.375,5.5 3.125,5.25 3.125,4.875 L3.125,4.75 C3.125,4.375 3.375,4.125 3.75,4.125 L12.3233269,4.125 C12.6983269,4.125 12.9483269,4.375 12.9483269,4.875 Z M12,13.625 L12,15.1700511 C12,16.0450511 12.7556453,16.0450511 13.1334679,15.6700511 L15.2472929,13.375 C15.7972388,12.7599101 15.7972388,12.25 14.4918091,12.25 L13.3853496,12.25 C12,12.25 12,12.25 12,13.625 Z" id="形状"></path>
            </g>
        </g>
    </g>
</svg>