<?xml version="1.0" encoding="UTF-8"?>
<svg width="60px" height="60px" viewBox="0 0 60 60" version="1.1" xmlns="http://www.w3.org/2000/svg" xmlns:xlink="http://www.w3.org/1999/xlink">
    <title>shangyizhang_0</title>
    <g id="页面-1" stroke="none" stroke-width="1" fill="none" fill-rule="evenodd">
        <g id="1.0.11-相册-预览图片（下一张）" transform="translate(-51.000000, -420.000000)">
            <g id="分组-3" transform="translate(51.000000, 420.000000)">
                <g id="分组-2" transform="translate(30.000000, 30.000000) scale(-1, 1) translate(-30.000000, -30.000000) ">
                    <circle id="椭圆形" fill-opacity="0.2" fill="#FFFFFF" cx="30" cy="30" r="30"></circle>
                    <g id="箭头" transform="translate(22.500000, 20.250000)" fill-rule="nonzero">
                        <rect id="矩形" fill="#000000" opacity="0" x="0" y="0.0190243902" width="19.4809756" height="19.4809756"></rect>
                        <path d="M15.2489674,9.72661963 L5.73117653,19.2405182 C5.38411968,19.5875751 4.82299038,19.5849803 4.47852836,19.2346799 C4.13411733,18.8832764 4.13643089,18.3202138 4.48371798,17.9716525 L12.7281021,9.73116056 L4.4856641,1.54775467 C4.13693957,1.20040959 4.13288872,0.637051169 4.47658224,0.284727224 C4.6407564,0.116133754 4.86555944,0.0202333704 5.10087534,0.0183788206 C5.33619124,0.0165775007 5.56245697,0.10897398 5.72923043,0.274996648 L15.2489674,9.72661963 L15.2489674,9.72661963 Z" id="路径" fill="#FFFFFF"></path>
                    </g>
                </g>
            </g>
        </g>
    </g>
</svg>