<?xml version="1.0" encoding="UTF-8"?>
<svg width="26px" height="26px" viewBox="0 0 26 26" version="1.1" xmlns="http://www.w3.org/2000/svg" xmlns:xlink="http://www.w3.org/1999/xlink">
    <title>xihuan_0</title>
    <g id="页面-1" stroke="none" stroke-width="1" fill="none" fill-rule="evenodd">
        <g id="1.0.11-相册-预览1" transform="translate(-1139.000000, -934.000000)" fill-rule="nonzero">
            <g id="导航_收藏_已收藏" transform="translate(1139.000000, 934.000000)">
                <rect id="矩形" fill="#000000" opacity="0" x="0" y="0" width="26" height="26"></rect>
                <path d="M6.37585975,2.96120049 C7.52781853,2.73215606 8.65694202,2.92586202 9.66467961,3.47465686 C10.7222547,4.05059223 11.6437853,5.01054388 12.3377416,6.27142728 C12.6205509,6.78527728 12.8409139,7.30431853 12.9974563,7.82016144 C13.1447915,7.31360208 13.3596416,6.79618938 13.6500503,6.2746932 C14.3630814,4.9942806 15.2950428,4.1140547 16.2980567,3.58556855 C17.4138474,2.99766053 18.6127672,2.84642206 19.6648131,3.05513113 C20.8098155,3.28008745 22.055841,4.00096557 22.9415913,5.31922873 C23.6854538,6.42632019 24.1699427,7.9444955 24.171,9.9268 C24.171,15.5550014 15.1123862,21.6528923 13.2294264,22.8653928 C12.0071372,22.2545243 7.90031995,19.5482085 4.94856935,16.2309433 C3.20777252,14.2745839 1.8342,12.0956293 1.8342,9.9736 C1.8342,7.94890162 2.32265587,6.39895012 3.07318896,5.26878912 C3.96533496,3.92538585 5.22060524,3.19022697 6.37585975,2.96120049 Z" id="路径" stroke="#FFFFFF" stroke-width="1.5"></path>
            </g>
        </g>
    </g>
</svg>