<?xml version="1.0" encoding="UTF-8"?>
<svg width="34px" height="34px" viewBox="0 0 34 34" version="1.1" xmlns="http://www.w3.org/2000/svg" xmlns:xlink="http://www.w3.org/1999/xlink">
    <title>gengduo</title>
    <g id="页面-1" stroke="none" stroke-width="1" fill="none" fill-rule="evenodd">
        <g id="首页" transform="translate(-1866.000000, -13.000000)">
            <g id="分组-8" transform="translate(1866.000000, 13.000000)">
                <rect id="矩形" fill="#F5F6FA" x="0" y="0" width="34" height="34" rx="17"></rect>
                <g id="Android更多" transform="translate(9.000000, 9.000000)" fill-rule="nonzero">
                    <rect id="矩形" fill="#000000" opacity="0" x="0" y="0" width="16" height="16"></rect>
                    <path d="M6.49890811,3.49672434 C6.49890811,2.66890644 7.17083823,1.99697631 7.99865614,1.99697631 C8.82647405,1.99697631 9.49840417,2.66890644 9.49840417,3.49672434 C9.49840417,4.32454225 8.82647405,4.99647237 7.99865614,4.99647237 C7.17083823,4.99647237 6.49890811,4.32454225 6.49890811,3.49672434 Z M6.49890811,7.99596842 C6.49890811,7.16815052 7.17083823,6.49622039 7.99865614,6.49622039 C8.82647405,6.49622039 9.49840417,7.16815052 9.49840417,7.99596842 C9.49840417,8.82378633 8.82647405,9.49571645 7.99865614,9.49571645 C7.17083823,9.49571645 6.49890811,8.82378633 6.49890811,7.99596842 Z M6.49890811,12.4979002 C6.49890811,11.6700823 7.17083823,10.9981522 7.99865614,10.9981522 C8.82647405,10.9981522 9.49840417,11.6700823 9.49840417,12.4979002 C9.49840417,13.3257181 8.82647405,13.9976483 7.99865614,13.9976483 C7.17083823,13.9976483 6.49890811,13.3230304 6.49890811,12.4979002 Z" id="形状" fill="#464956"></path>
                </g>
            </g>
        </g>
    </g>
</svg>