<?xml version="1.0" encoding="UTF-8"?>
<svg width="16px" height="16px" viewBox="0 0 16 16" version="1.1" xmlns="http://www.w3.org/2000/svg" xmlns:xlink="http://www.w3.org/1999/xlink">
    <title>wode</title>
    <g id="页面-1" stroke="none" stroke-width="1" fill="none" fill-rule="evenodd">
        <g id="我的" transform="translate(-40.000000, -495.000000)" fill-rule="nonzero">
            <g id="我的-我的" transform="translate(40.000000, 495.000000)">
                <rect id="矩形" fill="#000000" opacity="0" x="0" y="0" width="16" height="16"></rect>
                <path d="M8.15309509,8.488967 C10.493263,8.488967 12.3991408,6.58308923 12.3991408,4.2429213 C12.3991408,1.90275336 10.493263,0 8.15309509,0 C5.81292716,0 3.90704941,1.90587777 3.90704941,4.24604569 C3.90704941,6.58621361 5.81292717,8.488967 8.15309509,8.488967 L8.15309509,8.488967 Z M14.7205624,12.1132591 C14.4174966,11.463386 13.9863308,10.8760008 13.4395626,10.3667253 C12.3397774,9.3450498 10.8681898,8.75766452 9.40597539,8.75766452 L6.90333919,8.75766452 C5.43800039,8.75766452 3.9695372,9.3450498 2.869752,10.3667253 C2.3229838,10.8760008 1.891818,11.4633861 1.5887522,12.1132591 C1.27006445,12.7975005 1.10759617,13.5161101 1.10759617,14.2565905 C1.10759617,15.2189026 1.88869361,16 2.85100566,16 L13.4583089,16 C14.420621,16 15.2017184,15.2189026 15.2017184,14.2565905 C15.198594,13.5161101 15.0392502,12.7943761 14.7205624,12.1132591 L14.7205624,12.1132591 Z" id="形状" fill="#337AFF"></path>
            </g>
        </g>
    </g>
</svg>