<?xml version="1.0" encoding="UTF-8"?>
<svg width="34px" height="34px" viewBox="0 0 34 34" version="1.1" xmlns="http://www.w3.org/2000/svg" xmlns:xlink="http://www.w3.org/1999/xlink">
    <title>renwu</title>
    <g id="Page-1" stroke="none" stroke-width="1" fill="none" fill-rule="evenodd">
        <g id="DDXC-传输任务" transform="translate(-1812.000000, -20.000000)">
            <g id="分组-8" transform="translate(1812.000000, 20.000000)">
                <rect id="矩形" fill="#EAF1FF" x="0" y="0" width="34" height="34" rx="17"></rect>
                <g id="传输" transform="translate(17.000000, 17.000000) rotate(-90.000000) translate(-17.000000, -17.000000) translate(9.000000, 9.000000)" fill="#337AFF" fill-rule="nonzero">
                    <rect id="矩形" opacity="0" x="0" y="0" width="16" height="16"></rect>
                    <path d="M14,9.4 C14.434039,9.4 14.7889079,9.74609049 14.7997623,10.1799938 C14.8106167,10.613897 14.4734965,10.9773048 14.04,10.999 L14,11 L3.8984,11 L6.2784,13.4416 C6.57498817,13.7457054 6.58218879,14.2285865 6.2948,14.5414 L6.2642,14.5728 C5.96004106,14.869331 5.47716086,14.8764438 5.1644,14.589 L5.133,14.5584 L1.4288,10.7584 C0.9436,10.2608 1.2808,9.4308 1.9632,9.4008 L2.0016,9.4 L14,9.4 L14,9.4 Z" id="路径"></path>
                    <path d="M2,6.8 C1.565961,6.8 1.21109206,6.45390951 1.20023769,6.02000625 C1.18938333,5.58610299 1.52650355,5.22269517 1.96,5.201 L2,5.2 L12.1016,5.2 L9.7216,2.7584 C9.42501183,2.4542946 9.41781121,1.97141355 9.7052,1.6586 L9.7358,1.6272 C10.0399589,1.330669 10.5228391,1.3235562 10.8356,1.611 L10.867,1.6416 L14.5712,5.4416 C15.0564,5.9392 14.7192,6.7692 14.0368,6.7992 L13.9984,6.8 L2,6.8 Z" id="路径"></path>
                </g>
            </g>
        </g>
    </g>
</svg>