<?xml version="1.0" encoding="UTF-8"?>
<svg width="20px" height="20px" viewBox="0 0 20 20" version="1.1" xmlns="http://www.w3.org/2000/svg" xmlns:xlink="http://www.w3.org/1999/xlink">
    <title>s</title>
    <g id="页面-1" stroke="none" stroke-width="1" fill="none" fill-rule="evenodd">
        <g id="1.0.11-相册-搜索（照片/视频）-时间轴" transform="translate(-1711.000000, -20.000000)" fill="#FFFFFF" fill-rule="nonzero">
            <g id="编组" transform="translate(1438.000000, 13.000000)">
                <g id="分组-8" transform="translate(266.000000, 0.000000)">
                    <g id="搜索" transform="translate(7.000000, 7.000000)">
                        <rect id="矩形" opacity="0" x="0" y="0" width="20" height="20"></rect>
                        <path d="M15.4203516,15.4488867 C17.233457,13.9116602 18.3842969,11.6172266 18.3842969,9.05388672 C18.3842969,4.42550781 14.6322461,0.673398437 10.0038867,0.673398437 C5.37552734,0.673398437 1.62347656,4.42550781 1.62347656,9.05388672 C1.62347656,13.6823828 5.37552734,17.434375 10.0038867,17.434375 C11.6045898,17.434375 13.1004102,16.9855078 14.3725391,16.2068945 L17.2681641,19.2259961 C17.3878125,19.3547461 17.5963477,19.3683594 17.7339063,19.2563477 L18.2322266,18.8505273 C18.3697852,18.7385742 18.3842969,18.5433398 18.2646484,18.4145508 L15.4203711,15.4488867 L15.4203516,15.4488867 Z M2.91275391,9.05388672 C2.91275391,5.13759766 6.08757812,1.96283203 10.0038867,1.96283203 C13.9201953,1.96283203 17.0950195,5.13759766 17.0950195,9.05388672 C17.0950195,12.9702344 13.9201953,16.1451367 10.0038867,16.1451367 C6.08757812,16.1451367 2.91275391,12.9702344 2.91275391,9.05388672 Z" id="形状"></path>
                    </g>
                </g>
            </g>
        </g>
    </g>
</svg>