<?xml version="1.0" encoding="UTF-8"?>
<svg width="100px" height="100px" viewBox="0 0 100 100" version="1.1" xmlns="http://www.w3.org/2000/svg" xmlns:xlink="http://www.w3.org/1999/xlink">
    <title>shibai</title>
    <g id="页面-1" stroke="none" stroke-width="1" fill="none" fill-rule="evenodd">
        <g id="1.0.11-相册-不支持预览图片" transform="translate(-910.000000, -400.000000)" fill-rule="nonzero">
            <g id="238图片" transform="translate(910.000000, 400.000000)">
                <rect id="矩形" fill="#000000" opacity="0" x="0" y="0" width="100" height="100"></rect>
                <g id="组件-图片">
                    <rect id="矩形" fill="#262626" x="0" y="0" width="100" height="100" rx="6"></rect>
                    <path d="M41.25,68.75 L32,54.75 C30.5,52.5 27.5,51.75 25,53.25 L23.5,54.75 L10.75,74.75 C9.5,77.25 10,80.25 12.5,81.75 C13.25,82.25 14.25,82.5 15,82.5 L40,82.5 C42.75,82.5 45,80.25 45,77.5 C45,76.75 44.75,76 44.5,75.25 L41.25,68.75 L41.25,68.75 Z" id="路径" fill="#444444"></path>
                    <path d="M30,35 C25.75,35 22.5,31.75 22.5,27.5 C22.5,23.25 25.75,20 30,20 C34.25,20 37.5,23.25 37.5,27.5 C37.5,31.75 34.25,35 30,35 Z M62,31.75 C62.5,31 63.25,30.25 64,30 C66.5,28.75 69.5,30 70.75,32.25 L92.25,77.5 C92.5,78.25 92.75,79 92.75,79.75 C92.75,82.5 90.5,84.75 87.75,84.75 L37,84.75 C36,84.75 35,84.5 34,83.75 C31.75,82.25 31.25,79 32.75,76.75 L38.25,69 L62,31.75 Z" id="形状" fill="#383838"></path>
                </g>
            </g>
        </g>
    </g>
</svg>