<?xml version="1.0" encoding="UTF-8"?>
<svg width="112px" height="90px" viewBox="0 0 112 90" version="1.1" xmlns="http://www.w3.org/2000/svg" xmlns:xlink="http://www.w3.org/1999/xlink">
    <title>yulan</title>
    <g id="Page-1" stroke="none" stroke-width="1" fill="none" fill-rule="evenodd">
        <g id="0.3.0-文件不支持预览" transform="translate(-904.000000, -477.000000)" fill-rule="nonzero">
            <g id="编组" transform="translate(904.000000, 477.000000)">
                <g id="238图片" transform="translate(6.000000, 0.000000)">
                    <rect id="矩形" fill="#000000" opacity="0" x="0" y="0" width="100" height="90"></rect>
                    <path d="M60,8 L60,23.8333333 C60.0025832,26.1334489 61.866551,27.9974167 64.1666666,28 L64.1666666,28 L80,28 L80,77.1666666 C79.9974167,79.4667822 78.1334489,81.33075 75.8333334,81.3333333 L75.8333334,81.3333333 L24.1666666,81.3333333 C21.8665511,81.33075 20.0025833,79.4667822 20,77.1666666 L20,77.1666666 L20,12.1666666 C20.0025833,9.86655107 21.8665511,8.00258327 24.1666666,8 L24.1666666,8 L60,8 Z M65,46.6666666 L59,52.6656666 L53,46.6666666 L47,52.6666666 L53,58.6656666 L47,64.6666666 L53,70.6666666 L59,64.6656666 L65,70.6666666 L71,64.6666666 L65,58.6656666 L71,52.6666666 L65,46.6666666 Z M41.6666666,38 L31.6666666,38 C30.7461921,38 30,38.7461921 30,39.6666666 C30,40.5871412 30.7461921,41.3333333 31.6666666,41.3333333 L31.6666666,41.3333333 L41.6666666,41.3333333 C42.5871412,41.3333333 43.3333333,40.5871412 43.3333333,39.6666666 C43.3333333,38.7461921 42.5871412,38 41.6666666,38 L41.6666666,38 Z M48.3333334,24.6666666 L31.6666666,24.6666666 C30.7461921,24.6666666 30,25.4128587 30,26.3333333 C30,27.2538079 30.7461921,28 31.6666666,28 L31.6666666,28 L48.3333334,28 C49.2538079,28 50,27.2538079 50,26.3333333 C50,25.4128587 49.2538079,24.6666666 48.3333334,24.6666666 L48.3333334,24.6666666 Z M63.3333334,8.99635414 C63.4166667,9.06770828 63.4989584,9.14166664 63.5776041,9.2203125 L78.7796875,24.4223958 C78.8583334,24.5010416 78.9322916,24.5833333 79.0036459,24.6666666 L64.1666666,24.6666666 C63.7064294,24.6666666 63.3333334,24.2935706 63.3333334,23.8333333 L63.3333334,8.99635414 Z" id="合并形状" fill="#C5C9D8"></path>
                </g>
            </g>
        </g>
    </g>
</svg>