<?xml version="1.0" encoding="UTF-8"?>
<svg width="224px" height="224px" viewBox="0 0 224 224" version="1.1" xmlns="http://www.w3.org/2000/svg" xmlns:xlink="http://www.w3.org/1999/xlink">
    <title>wu</title>
    <g id="页面-1" stroke="none" stroke-width="1" fill="none" fill-rule="evenodd">
        <g id="1.0.11-相册-搜索（无结果）" transform="translate(-948.000000, -403.000000)">
            <g id="分组-13" transform="translate(948.000000, 403.000000)">
                <circle id="椭圆形" fill-opacity="0.0508358829" fill="#337AFF" cx="112" cy="112" r="112"></circle>
                <g id="分组-12" transform="translate(37.000000, 43.000000)">
                    <g id="编组-2" transform="translate(27.000000, 25.000000)">
                        <path d="M100,26.25 L100,76.4648437 L76.8414063,53.3054688 C74.3988213,50.868846 70.4449287,50.868846 68.0023437,53.3054688 L42.421875,78.8867187 L31.9195312,68.3835937 C29.4769463,65.946971 25.5230537,65.946971 23.0804688,68.3835937 L0,91.4648437 L0,26.25 C0.00387490992,22.7998266 2.79982668,20.0038749 6.25000007,20 L93.7499999,20 C97.2001733,20.0038749 99.9961251,22.7998266 100,26.25 Z M40,47.5 C40,40.6078126 34.3921876,35 27.5,35 C20.6078124,35 15,40.6078125 15,47.5 C15,54.3921876 20.6078124,60 27.5,60 C34.3921876,60 40,54.3921875 40,47.5 Z" id="形状" fill="#C0D5FF" fill-rule="nonzero"></path>
                        <path d="M28.3835938,71.9195313 C27.8955047,71.4317621 27.1044953,71.4317621 26.6164063,71.9195313 L1.1625,97.3734374 C2.33339897,99.0206213 4.22905512,99.9993062 6.25000007,100 L21.3085938,100 L38.8867188,82.421875 L28.3835938,71.9195313 Z" id="路径" fill="#DAE6FF"></path>
                        <path d="M72.4218749,56.4749971 C72.0902414,56.4742895 71.772093,56.6062184 71.5382812,56.8414062 L28.3789063,100 L93.7499999,100 C97.2001734,99.9961252 99.9961252,97.2001734 100,93.7499999 L100,83.5351563 L73.3054687,56.8414062 C73.0716569,56.6062184 72.7535084,56.4742895 72.4218749,56.4749971 L72.4218749,56.4749971 Z" id="路径" fill="#DAE6FF"></path>
                        <path d="M35,47.5 C35,51.6421357 31.6421356,55 27.5,55 C23.3578644,55 20,51.6421357 20,47.5 C20,43.3578644 23.3578644,40 27.5,40 C31.6401724,40.0047358 34.9952642,43.3598276 35,47.5 L35,47.5 Z" id="路径" fill="#DAE6FF"></path>
                        <path d="M12.5,5 L87.5,5 C88.8807119,5 90,3.8807119 90,2.5 C90,1.11928813 88.8807119,0 87.5,0 L12.5,0 C11.1192881,0 10,1.11928813 10,2.5 C10,3.8807119 11.1192881,5 12.5,5 Z" id="路径" fill="#C0D5FF"></path>
                        <path d="M7.50000004,15.0000001 L92.5,15.0000001 C93.8807119,15.0000001 95,13.8807119 95,12.5000001 C95,11.1192882 93.8807119,10.0000001 92.5,10.0000001 L7.50000004,10.0000001 C6.11928814,10.0000001 5.00000004,11.1192882 5.00000004,12.5000001 C5.00000004,13.8807119 6.11928814,15.0000001 7.50000004,15.0000001 Z" id="路径" fill="#C0D5FF"></path>
                    </g>
                    <circle id="椭圆形" fill-opacity="0.152125219" fill="#337AFF" cx="33" cy="5" r="5"></circle>
                    <circle id="椭圆形" fill-opacity="0.077114292" fill="#337AFF" cx="12" cy="32" r="12"></circle>
                </g>
                <path d="M142.101919,119.128901 C145.356768,119.128901 148.545106,119.756785 151.664966,121.022814 C154.78833,122.290267 157.574726,124.142848 160.019499,126.587621 C162.247922,128.907692 163.915058,131.399446 165.09083,134.112766 C166.261019,136.813201 166.954898,139.581857 167.179901,142.416904 C167.403937,145.239752 167.180847,148.04032 166.508716,150.81846 C166.143027,152.329975 165.651726,153.788601 165.0348,155.194334 L164.762712,155.793552 L172.150914,163.181755 C173.965184,165.338516 174.746596,167.200284 174.932041,168.622031 C175.173951,170.476669 174.689125,172.482141 172.859364,174.495267 C170.93126,176.710493 168.787958,177.456271 166.622584,177.301601 C164.889881,177.177837 163.120738,176.528489 161.371402,175.190611 L161.062913,174.947335 L153.324715,167.48225 C151.70613,168.242652 150.007859,168.834926 148.229586,169.258324 C145.409596,169.92975 142.611894,170.149489 139.837082,169.925713 C137.03403,169.699661 134.297573,169.002833 131.629724,167.82717 C128.919131,166.632671 126.453931,164.89627 124.246759,162.599371 C121.825154,160.164343 119.986236,157.37083 118.726388,154.221211 C117.464193,151.065724 116.83993,147.864301 116.83993,144.619513 C116.83993,141.364664 117.467814,138.176326 118.733844,135.056466 C119.9901,131.960692 121.824324,129.152637 124.2477,126.639506 C126.740792,124.14548 129.502538,122.296548 132.577096,121.030553 C135.661325,119.760577 138.836697,119.128901 142.101919,119.128901 Z M142.21623,134.559166 C140.809454,134.559166 139.507049,134.802633 138.31501,135.317377 C137.128296,135.829822 136.088787,136.543113 135.198586,137.460291 C134.284156,138.402431 133.567433,139.499144 133.041155,140.745592 C132.524632,141.968936 132.270195,143.260765 132.270195,144.619513 C132.270195,146.043434 132.520355,147.374272 133.041155,148.607746 C133.557678,149.831089 134.258945,150.895621 135.15669,151.793366 C136.078371,152.715046 137.156085,153.451229 138.384478,154.009589 C139.555291,154.541777 140.834596,154.794172 142.21623,154.794172 C143.533537,154.794172 144.773619,154.536885 145.933672,154.009589 C147.162064,153.451229 148.239779,152.715046 149.161459,151.793366 C150.059204,150.895621 150.760471,149.831089 151.276994,148.607746 C151.797794,147.374272 152.047954,146.043434 152.047954,144.619513 C152.047954,143.260765 151.793517,141.968936 151.276994,140.745592 C150.750716,139.499144 150.033993,138.402431 149.119564,137.460291 C148.229362,136.543113 147.189853,135.829822 146.003139,135.317377 C144.821409,134.807084 143.558088,134.559166 142.21623,134.559166 Z" id="合并形状" stroke="#F5F8FF" stroke-width="8" fill="#88B1FE" fill-rule="nonzero"></path>
                <circle id="椭圆形" fill="#F5F8FF" cx="142" cy="143" r="11"></circle>
            </g>
        </g>
    </g>
</svg>