<?xml version="1.0" encoding="UTF-8"?>
<svg width="34px" height="34px" viewBox="0 0 34 34" version="1.1" xmlns="http://www.w3.org/2000/svg" xmlns:xlink="http://www.w3.org/1999/xlink">
    <title>xiaoxi</title>
    <g id="页面-1" stroke="none" stroke-width="1" fill="none" fill-rule="evenodd">
        <g id="首页" transform="translate(-1812.000000, -13.000000)">
            <g id="分组-8" transform="translate(1812.000000, 13.000000)">
                <rect id="矩形" fill="#F5F6FA" x="0" y="0" width="34" height="34" rx="17"></rect>
                <g id="编组-3" transform="translate(9.740625, 8.804688)">
                    <path d="M13.9720939,11.373922 C13.4458666,11.036097 13.0993794,10.4470689 13.0993794,9.77358451 L13.0993794,7.01636459 C13.0993794,4.26395737 11.1092439,1.96631452 8.44995513,1.40110737 L8.44995513,1.26684361 C8.44995513,0.565207147 7.88258244,0 7.18311152,0 C6.48364061,0 5.91626792,0.567372692 5.91626792,1.26684361 L5.91626792,1.40110737 C3.25697912,1.96631452 1.26684361,4.26179182 1.26684361,7.01636459 L1.26684361,9.77358451 C1.26684361,10.4470689 0.918190921,11.036097 0.394129122,11.373922 C0.541386156,11.278638 0.690808736,11.2461549 0.842396859,11.2526515 C0.376804765,11.254817 0,11.6294563 0,12.0972139 C0,12.5649715 0.376804765,12.9417763 0.844562404,12.9417763 L13.5194951,12.9417763 C13.9872527,12.9417763 14.3640851,12.5649715 14.3640851,12.0972139 C14.366223,11.6337873 13.9894183,11.254817 13.5238262,11.2526515 C13.6754143,11.2483204 13.8270024,11.278638 13.9720939,11.373922 Z" id="形状" fill="#337AFF" fill-rule="nonzero"></path>
                    <path d="M10.0717055,14.2230811 L4.07170551,14.2230811 C4.07170551,15.8798434 5.41186945,17.2230811 7.07170551,17.2230811 C8.72846781,17.2230811 10.0717055,15.8798434 10.0717055,14.2230811 Z" id="路径" fill="#43D9AF"></path>
                </g>
            </g>
        </g>
    </g>
</svg>