<?xml version="1.0" encoding="UTF-8"?>
<svg width="26px" height="26px" viewBox="0 0 26 26" version="1.1" xmlns="http://www.w3.org/2000/svg" xmlns:xlink="http://www.w3.org/1999/xlink">
    <title>xiazai</title>
    <g id="页面-1" stroke="none" stroke-width="1" fill="none" fill-rule="evenodd">
        <g id="1.0.11-相册-预览图片（下一张）" transform="translate(-755.000000, -934.000000)" fill-rule="nonzero">
            <g id="下载-(1)" transform="translate(755.000000, 934.000000)">
                <rect id="矩形" fill="#000000" opacity="0" x="0" y="0" width="26" height="26"></rect>
                <path d="M22.75,21.8973952 C22.75,22.368265 22.3685417,22.75 21.8980132,22.75 L4.10198677,22.75 C3.6314583,22.75 3.25,22.368265 3.25,21.8973952 L3.25,21.8973952 C3.25,21.4265254 3.6314583,21.0447904 4.10198677,21.0447904 L21.8980132,21.0447904 C22.3685677,21.0447904 22.75,21.4265254 22.75,21.8973952 L22.75,21.8973952 Z M12.9981162,19.4930965 C12.5275877,19.4930965 12.1461294,19.1113615 12.1461294,18.6404917 L12.1461294,4.10260479 C12.1461294,3.63170901 12.5275877,3.25 12.9981162,3.25 L12.9981162,3.25 C13.4686447,3.25 13.850103,3.631735 13.850103,4.10260479 L13.850103,18.6404917 C13.850103,19.1113614 13.4686447,19.4930965 12.9981162,19.4930965 L12.9981162,19.4930965 Z M13.600561,19.2378351 C13.2678471,19.5707904 12.7283854,19.5707904 12.3956714,19.2378351 L6.00137942,12.8389047 C5.66866546,12.5059494 5.66866546,11.9660964 6.00137942,11.6331411 L6.00137942,11.6331411 C6.33409339,11.3001858 6.87355509,11.3001858 7.20626905,11.6331411 L13.600561,18.0320714 C13.933275,18.3650267 13.933275,18.9048537 13.600561,19.2378351 L13.600561,19.2378351 Z M12.3956714,19.2378091 C12.0629575,18.9048537 12.0629575,18.3650007 12.3956714,18.0320454 L18.7899634,11.6331151 C19.1226774,11.3001598 19.6621391,11.3001598 19.994853,11.6331151 L19.994853,11.6331151 C20.327567,11.9660704 20.327567,12.5059234 19.994853,12.8388787 L13.600561,19.2378351 C13.2678211,19.5707904 12.7283854,19.5707904 12.3956714,19.2378091 L12.3956714,19.2378091 Z" id="形状" fill="#FFFFFF"></path>
            </g>
        </g>
    </g>
</svg>